<svg xmlns="http://www.w3.org/2000/svg" width="150mm" height="150mm" viewBox="0 0 150 150"><defs><marker orient="auto" id="a" overflow="visible"><path d="M5.231 2.42L-1.324.01 5.23-2.401C4.184-.978 4.19.969 5.231 2.42z" fill-rule="evenodd" stroke="#000" stroke-width=".375" stroke-linejoin="round"/></marker><marker orient="auto" id="b" overflow="visible"><path d="M5.231 2.42L-1.324.01 5.23-2.401C4.184-.978 4.19.969 5.231 2.42z" fill-rule="evenodd" stroke="#000" stroke-width=".375" stroke-linejoin="round"/></marker><marker orient="auto" id="c" overflow="visible"><path d="M5.231 2.42L-1.324.01 5.23-2.401C4.184-.978 4.19.969 5.231 2.42z" fill-rule="evenodd" stroke="#000" stroke-width=".375" stroke-linejoin="round"/></marker><marker orient="auto" id="d" overflow="visible"><path d="M5.231 2.42L-1.324.01 5.23-2.401C4.184-.978 4.19.969 5.231 2.42z" fill-rule="evenodd" stroke="#000" stroke-width=".375" stroke-linejoin="round"/></marker></defs><g transform="translate(-31.21 -29.705)"><circle cx="129.268" cy="118.973" r="11.626" fill="none" stroke="#000" stroke-width="2"/><circle cx="149.201" cy="135.875" r="4.735"/><circle cx="149.198" cy="150.526" r="4.735"/><path d="M140.21 125.508l7.108 6.3" fill="none" stroke="#000" stroke-width=".528" marker-start="url(#a)"/><circle cx="161.391" cy="150.502" r="4.282" fill="none" stroke="#000" stroke-width=".904"/><path d="M149.206 141.251v5.142" fill="none" stroke="#000" stroke-width=".528" marker-start="url(#b)"/><circle cx="149.253" cy="165.062" r="4.735"/><path d="M149.261 155.788v5.141" fill="none" stroke="#000" stroke-width=".528" marker-start="url(#c)"/><path d="M153.24 138.732l6.579 7.357" fill="none" stroke="#000" stroke-width=".528" marker-start="url(#d)"/></g><path d="M75.617 10.11c43.707 5.542 40.994 27.432 41.898 41.563 34.363 11.637 15.072 25.214 5.728 30.479.3-12.746-18.387-16.348-48.831-14.409-30.444 1.94-50.64 14.963-44.611 24.938-13.866-5.265-46.119-31.033 45.816-41.562-9.645-2.217-42.5 1.662-48.228 6.095 0-11.914-2.11-45.718 48.228-47.103z" stroke="#000" stroke-width=".405"/><path d="M74.3 118.866c4.252-3.402 8.693-2.74 22.867 6.52 5.575 0 3.78-8.41-1.323-6.237 1.512-2.079 7.56-1.795 7.938 4.914.378 6.709-12.662 13.796-29.388 2.646m-.094-7.843c-4.252-3.402-8.694-2.74-22.868 6.52-5.575 0-3.78-8.41 1.323-6.237-1.512-2.079-7.56-1.795-7.937 4.914-.378 6.709 12.85 13.796 29.576 2.646" stroke="#000" stroke-width=".265"/></svg>